<?xml version="1.0" encoding="utf-8"?>
<!-- Generator: Adobe Illustrator 16.0.0, SVG Export Plug-In . SVG Version: 6.00 Build 0)  -->
<!DOCTYPE svg PUBLIC "-//W3C//DTD SVG 1.1//EN" "http://www.w3.org/Graphics/SVG/1.1/DTD/svg11.dtd">
<svg version="1.1" id="Шар_1" xmlns="http://www.w3.org/2000/svg" xmlns:xlink="http://www.w3.org/1999/xlink" x="0px" y="0px"
	 width="228.724px" height="114.665px" viewBox="0 0 228.724 114.665" enable-background="new 0 0 228.724 114.665"
	 xml:space="preserve">
<g>
	<path fill="#FFFFFF" d="M108.135,85.325c0,39.067-53.252,39.065-53.252,0V44.721h15.994v40.111c0,11.854,6.398,13.83,10.632,13.83
		c4.233,0,10.631-1.976,10.631-13.83V44.721h15.995V85.325z"/>
	<path fill="#FFFFFF" d="M135.053,44.721c18.535,0,33.494,14.721,33.494,34.578c0,19.955-14.959,34.577-33.494,34.577h-23.991
		V44.721H135.053z M135.053,97.971c9.88,0,17.501-6.422,17.501-18.672c0-12.151-7.621-18.771-17.501-18.771h-7.997v37.442H135.053z"
		/>
	<path fill="#FFFFFF" d="M228.724,55.588l-10.349,10.077c-11.525-10.951-31.989-6.183-31.989,13.733
		c0,16.479,14.539,23.145,26.343,17.388v-9.485h-8.843V74.655h24.838v28.552c-20.925,23.637-58.333,8.256-58.333-23.809
		C170.391,47.33,207.799,31.95,228.724,55.588"/>
	<rect x="33.077" y="71.937" fill="#BFD730" width="16.807" height="16.807"/>
	<rect x="5.861" y="44.714" fill="#BFD730" width="24.29" height="24.29"/>
	<rect x="11.77" fill="#FFFFFF" width="18.381" height="18.381"/>
	<rect x="33.077" y="4.825" fill="#BFD730" width="34.891" height="34.891"/>
	<rect y="25.099" fill="#BFD730" width="14.671" height="14.671"/>
	<rect x="73.82" y="21.307" fill="#BFD730" width="15.377" height="15.377"/>
	<rect x="20.404" y="28.59" fill="#BFD730" width="7.689" height="7.689"/>
	<rect x="36.004" y="44.714" fill="#FFFFFF" width="11.795" height="11.795"/>
</g>
</svg>
